Coordinates
version=1
nRows=27
nColumns=38
inDegrees=no

Units are S.I. units (second, meters, Newtons, ...)
If the header above contains a line with 'inDegrees', this indicates whether rotational values are in degrees (yes) or radians (no).

endheader
time	pelvis_tilt	pelvis_list	pelvis_rotation	pelvis_tx	pelvis_ty	pelvis_tz	hip_flexion_r	hip_adduction_r	hip_rotation_r	knee_angle_r	ankle_angle_r	subtalar_angle_r	mtp_angle_r	hip_flexion_l	hip_adduction_l	hip_rotation_l	knee_angle_l	ankle_angle_l	subtalar_angle_l	mtp_angle_l	lumbar_extension	lumbar_bending	lumbar_rotation	arm_flex_r	arm_add_r	arm_rot_r	elbow_flex_r	pro_sup_r	wrist_flex_r	wrist_dev_r	arm_flex_l	arm_add_l	arm_rot_l	elbow_flex_l	pro_sup_l	wrist_flex_l	wrist_dev_l
0	1.81466	1.37315	-0.152547	0.724716	-0.621074	0.991734	0.303463	0.102312	-0.578855	0.420344	0.0126465	0	0	0.0260733	-0.310671	0.0177376	0.988742	-0.147024	0	0	-0.276636	0.229035	0.0123733	-0.14365	-0.241136	0.00375109	0.444254	1.32917	0	0	0.0418523	-0.221391	0.49272	0.330965	1.17907	0	0
0.01	2.01703	1.34762	-0.404291	0.73417	-0.613988	0.999943	0.228809	0.155072	-0.500442	0.378599	-0.0124802	0	0	-0.024767	-0.337598	-0.0355732	1.00868	-0.200361	0	0	-0.352403	0.217858	0.072057	-0.123053	-0.234403	0.0101665	0.440667	1.32521	0	0	0.0581496	-0.232534	0.503128	0.339494	1.17105	0	0
0.02	1.825	1.36552	-0.165398	0.72822	-0.60363	0.994265	0.277438	0.120918	-0.565334	0.411271	0.0236703	0	0	0.0818878	-0.313235	0.0559578	1.07865	-0.200052	0	0	-0.278503	0.235647	0.0169486	-0.140621	-0.244566	0.00782957	0.443527	1.32899	0	0	0.0426227	-0.219533	0.498416	0.331169	1.17501	0	0
0.03	1.57641	1.41868	0.0794023	0.727252	-0.596924	0.989649	0.344546	0.0424954	-0.583203	0.483908	0.0667863	0	0	0.191639	-0.233897	0.0996367	1.20255	0.523396	0	0	-0.22191	0.185617	0.000602093	-0.139913	-0.243105	0.00835282	0.433561	1.34125	0	0	0.0387401	-0.208205	0.431143	0.312656	1.25979	0	0
0.04	1.42892	1.47686	0.233296	0.729446	-0.584109	0.985399	0.375486	-0.0363787	-0.560248	0.573203	0.129682	0	0	0.20057	-0.159211	0.1139	1.19671	-0.132059	0	0	-0.189545	0.113817	-0.0225102	-0.152453	-0.224127	0.00995193	0.424449	1.33804	0	0	0.010405	-0.241484	0.471302	0.351484	1.21252	0	0
0.05	1.79383	1.37058	-0.14532	0.732987	-0.57885	0.997513	0.251325	0.128711	-0.55763	0.402808	0.0432099	0	0	0.175067	-0.288367	0.11873	1.21679	-0.14367	0	0	-0.270248	0.230131	0.0206948	-0.115376	-0.245294	0.0164717	0.407986	1.33917	0	0	0.0438821	-0.201487	0.419708	0.312092	1.26299	0	0
0.06	1.65139	1.40185	-0.0189888	0.735773	-0.571275	0.994784	0.281684	0.0972165	-0.549665	0.427593	0.0648219	0	0	0.230079	-0.250005	0.120899	1.25569	-0.131042	0	0	-0.235697	0.195154	0.0239772	-0.111402	-0.239193	0.0179306	0.395189	1.33876	0	0	0.0363966	-0.20787	0.423927	0.319802	1.25651	0	0
0.07	1.65468	1.39488	-0.0303475	0.737621	-0.563706	0.996404	0.262121	0.114447	-0.544917	0.40427	0.059502	0	0	0.261439	-0.254176	0.126178	1.29812	0.420872	0	0	-0.238992	0.202221	0.0327111	-0.101496	-0.24195	0.0221228	0.385913	1.33778	0	0	0.0392589	-0.203304	0.423461	0.317989	1.25363	0	0
0.08	1.68221	1.40132	-0.0647483	0.739485	-0.555502	0.997848	0.239687	0.121852	-0.518002	0.38215	0.0601474	0	0	0.26786	-0.241345	0.135946	1.30021	-0.126204	0	0	-0.243334	0.193628	0.0371157	-0.0933753	-0.240832	0.0252163	0.376273	1.33638	0	0	0.0394549	-0.204829	0.42961	0.321959	1.24345	0	0
0.09	1.69842	1.40561	-0.0900625	0.740994	-0.547436	0.999065	0.223346	0.121439	-0.515137	0.375527	0.0658637	0	0	0.293788	-0.233139	0.133773	1.33376	0.411733	0	0	-0.245967	0.188541	0.0441531	-0.0876156	-0.242914	0.0271596	0.371278	1.33747	0	0	0.0411692	-0.20086	0.41952	0.318738	1.25371	0	0
0.1	1.92229	1.40359	-0.327466	0.744312	-0.539112	1.00512	0.161784	0.122628	-0.518969	0.354598	0.0624128	0	0	0.263045	-0.225633	0.135711	1.32407	-0.135653	0	0	-0.291737	0.175982	0.0590242	-0.0719131	-0.239226	0.0353539	0.361193	1.32657	0	0	0.0482547	-0.208513	0.442974	0.327577	1.21782	0	0
0.11	1.98347	1.40821	-0.401702	0.746378	-0.53135	1.00661	0.136629	0.127016	-0.482644	0.334391	0.0637236	0	0	0.270567	-0.215519	0.129793	1.33132	-0.136001	0	0	-0.301959	0.164835	0.0704823	-0.0673087	-0.240773	0.0353861	0.361344	1.33094	0	0	0.0511992	-0.209497	0.446994	0.331572	1.21836	0	0
0.12	2.21859	1.38977	-0.702302	0.754621	-0.52498	1.01309	0.0706295	0.139826	-0.40494	0.31588	0.0544386	0	0	0.223938	-0.253786	0.0338764	1.32494	-0.160637	0	0	-0.367166	0.134277	0.13547	-0.0499055	-0.23899	0.0318935	0.360154	1.3436	0	0	0.0659154	-0.212653	0.443383	0.334442	1.22596	0	0
0.13	2.14186	1.41688	-0.579041	0.749317	-0.515539	1.00982	0.0965866	0.119032	-0.457467	0.329622	0.0724339	0	0	0.294921	-0.214577	0.0912479	1.34488	-0.152682	0	0	-0.321793	0.141743	0.0864851	-0.0613337	-0.244946	0.0297944	0.362447	1.34559	0	0	0.0582992	-0.205199	0.441346	0.32964	1.2251	0	0
0.14	2.09829	1.42168	-0.540562	0.750845	-0.508278	1.00976	0.0957234	0.120414	-0.457039	0.327669	0.0772869	0	0	0.322729	-0.210127	0.0960072	1.34647	-0.146719	0	0	-0.312237	0.14138	0.0888485	-0.061596	-0.25093	0.0546162	0.370487	1.31641	0	0	0.0577785	-0.204297	0.443509	0.331734	1.21177	0	0
0.15	1.90906	1.41103	-0.355614	0.753425	-0.502777	1.00919	0.101506	0.141464	-0.472361	0.307597	0.075806	0	0	0.354151	-0.212943	0.124792	1.32048	-0.167172	0	0	-0.293741	0.16424	0.0928372	-0.0537449	-0.253645	0.0593733	0.371447	1.3138	0	0	0.0591936	-0.203078	0.443787	0.334353	1.20787	0	0
0.16	1.93365	1.42021	-0.386715	0.754792	-0.495218	1.00958	0.0909045	0.135558	-0.455547	0.304177	0.0826952	0	0	0.367828	-0.197509	0.124403	1.31427	-0.160766	0	0	-0.293163	0.15307	0.0940408	-0.049834	-0.25451	0.0649728	0.372237	1.31164	0	0	0.059353	-0.203832	0.443687	0.336231	1.2035	0	0
0.17	1.97535	1.42003	-0.434861	0.756464	-0.487794	1.01081	0.0701791	0.137522	-0.447272	0.292783	0.0845164	0	0	0.374215	-0.192689	0.123992	1.30252	-0.153246	0	0	-0.300246	0.149515	0.0973074	-0.0429922	-0.255601	0.0716315	0.37107	1.30951	0	0	0.0613106	-0.203619	0.443597	0.337179	1.19903	0	0
0.18	2.07813	1.41627	-0.549051	0.758868	-0.479384	1.01304	0.0359495	0.138487	-0.435072	0.278741	0.0861598	0	0	0.366527	-0.184872	0.123696	1.28792	-0.146346	0	0	-0.316526	0.141613	0.10498	-0.0361554	-0.254806	0.0781365	0.368056	1.30671	0	0	0.0623354	-0.204678	0.443701	0.337093	1.19443	0	0
0.19	2.09154	1.39593	-0.559447	0.760794	-0.471229	1.01401	-0.00149545	0.176504	-0.404514	0.238913	0.0628217	0	0	0.364433	-0.201977	0.131481	1.26916	-0.126289	0	0	-0.327231	0.159505	0.106826	-0.0305931	-0.256084	0.071468	0.360848	1.32935	0	0	0.0667795	-0.193683	0.39802	0.320942	1.24928	0	0
0.2	2.16024	1.39931	-0.638055	0.762352	-0.464558	1.01658	-0.0289823	0.160686	-0.410616	0.222531	0.0713713	0	0	0.365182	-0.190644	0.124168	1.24506	-0.124268	0	0	-0.341745	0.146371	0.107796	-0.0128963	-0.252714	0.0774877	0.35172	1.32844	0	0	0.0725859	-0.194959	0.396326	0.319693	1.24801	0	0
0.21	2.15064	1.41541	-0.62418	0.763104	-0.457971	1.01489	-0.0113341	0.154507	-0.394255	0.24647	0.0807482	0	0	0.390885	-0.179271	0.117805	1.22382	-0.109466	0	0	-0.327985	0.135354	0.0991644	-0.00776782	-0.252955	0.0924839	0.347728	1.32029	0	0	0.075105	-0.19549	0.396134	0.317642	1.24058	0	0
0.22	2.1581	1.40344	-0.640661	0.764638	-0.450349	1.01679	-0.0508722	0.162685	-0.395416	0.205636	0.0776465	0	0	0.387441	-0.18789	0.113665	1.19494	-0.102372	0	0	-0.339516	0.143402	0.104405	0.00432208	-0.253311	0.0903925	0.341651	1.33071	0	0	0.0778186	-0.192981	0.396862	0.313669	1.23629	0	0
0.23	2.15405	1.41037	-0.638595	0.766165	-0.442335	1.01487	-0.0436301	0.164736	-0.374096	0.226545	0.0868612	0	0	0.399534	-0.186129	0.105708	1.16696	-0.0838636	0	0	-0.329223	0.13775	0.104434	0.00293719	-0.255855	0.108697	0.343039	1.3161	0	0	0.0767311	-0.193757	0.401025	0.312799	1.22685	0	0
0.24	2.18518	1.39855	-0.670099	0.767844	-0.434635	1.01649	-0.0845445	0.181601	-0.35718	0.182857	0.0721834	0	0	0.393159	-0.19614	0.0988033	1.13136	-0.0777257	0	0	-0.342545	0.143343	0.105099	0.0114591	-0.255007	0.1123	0.339201	1.31594	0	0	0.0813247	-0.193681	0.40237	0.310258	1.22429	0	0
0.25	2.21397	1.40939	-0.705926	0.769487	-0.427413	1.01584	-0.0795777	0.165362	-0.35689	0.206947	0.0915116	0	0	0.399321	-0.187277	0.0815856	1.09528	-0.0693775	0	0	-0.339337	0.128944	0.105756	0.0157125	-0.253896	0.119964	0.340408	1.31001	0	0	0.0827917	-0.197747	0.413025	0.313041	1.2084	0	0
0.26	2.2337	1.39702	-0.725819	0.771146	-0.419619	1.01724	-0.121942	0.183766	-0.336693	0.158709	0.0725177	0	0	0.390977	-0.199337	0.0703975	1.05501	-0.0602078	0	0	-0.351929	0.135475	0.106876	0.0214276	-0.253716	0.121921	0.341552	1.30855	0	0	0.0870617	-0.198085	0.414711	0.311527	1.20498	0	0
